<svg id="Grupo_823" data-name="Grupo 823" xmlns="http://www.w3.org/2000/svg" xmlns:xlink="http://www.w3.org/1999/xlink" width="102.558" height="39.037" viewBox="0 0 102.558 39.037">
  <defs>
    <clipPath id="clip-path">
      <rect id="Rectángulo_849" data-name="Rectángulo 849" width="102.558" height="39.037" fill="none"/>
    </clipPath>
    <clipPath id="clip-path-3">
      <rect id="Rectángulo_843" data-name="Rectángulo 843" width="31.797" height="8.412" fill="none"/>
    </clipPath>
    <clipPath id="clip-path-4">
      <rect id="Rectángulo_845" data-name="Rectángulo 845" width="12.533" height="27.868" fill="none"/>
    </clipPath>
    <clipPath id="clip-path-5">
      <rect id="Rectángulo_846" data-name="Rectángulo 846" width="16.891" height="16.891" fill="none"/>
    </clipPath>
  </defs>
  <g id="Grupo_852" data-name="Grupo 852" clip-path="url(#clip-path)">
    <g id="Grupo_851" data-name="Grupo 851">
      <g id="Grupo_850" data-name="Grupo 850" clip-path="url(#clip-path)">
        <path id="Trazado_1644" data-name="Trazado 1644" d="M31.785,11.513,28.638,6.1,25.491.687,22.377,6.119l-.249.435H8.52v16.02l-.042,0A8.438,8.438,0,0,0,.222,32.791v6.624H7.589a8.528,8.528,0,0,0,.889.048c.116,0,.228-.013.342-.018H31.484c.115,0,.343.018.343.018l0-16.891V11.584" transform="translate(-0.027 -0.573)" fill="#fff"/>
        <rect id="Rectángulo_841" data-name="Rectángulo 841" width="16.921" height="32.891" transform="translate(8.494 5.98)" fill="#1486c7"/>
        <g id="Grupo_840" data-name="Grupo 840" transform="translate(0 30.429)" style="mix-blend-mode: multiply;isolation: isolate">
          <g id="Grupo_839" data-name="Grupo 839">
            <g id="Grupo_838" data-name="Grupo 838" clip-path="url(#clip-path-3)">
              <rect id="Rectángulo_842" data-name="Rectángulo 842" width="31.797" height="8.412" transform="translate(0 0)" fill="#969696"/>
            </g>
          </g>
        </g>
        <g id="Grupo_843" data-name="Grupo 843" transform="translate(19.269 11.003)" style="mix-blend-mode: multiply;isolation: isolate">
          <g id="Grupo_842" data-name="Grupo 842">
            <g id="Grupo_841" data-name="Grupo 841" clip-path="url(#clip-path-4)">
              <rect id="Rectángulo_844" data-name="Rectángulo 844" width="12.533" height="27.868" transform="translate(0 0)" fill="#0085ca"/>
            </g>
          </g>
        </g>
        <g id="Grupo_846" data-name="Grupo 846" transform="translate(0.005 21.997)" style="mix-blend-mode: multiply;isolation: isolate">
          <g id="Grupo_845" data-name="Grupo 845">
            <g id="Grupo_844" data-name="Grupo 844" clip-path="url(#clip-path-5)">
              <path id="Trazado_1645" data-name="Trazado 1645" d="M16.923,141.522a8.446,8.446,0,1,1-8.446-8.446,8.446,8.446,0,0,1,8.446,8.446" transform="translate(-0.032 -133.076)" fill="#78ae34"/>
            </g>
          </g>
        </g>
        <g id="Grupo_849" data-name="Grupo 849" transform="translate(8.451 21.997)" style="mix-blend-mode: multiply;isolation: isolate">
          <g id="Grupo_848" data-name="Grupo 848">
            <g id="Grupo_847" data-name="Grupo 847" clip-path="url(#clip-path-5)">
              <path id="Trazado_1646" data-name="Trazado 1646" d="M68.017,141.522a8.446,8.446,0,1,1-8.446-8.446,8.446,8.446,0,0,1,8.446,8.446" transform="translate(-51.126 -133.076)" fill="#78ae34"/>
            </g>
          </g>
        </g>
        <path id="Trazado_1647" data-name="Trazado 1647" d="M116.466,184.005l4.691-.014,4.691-.014-2.334,4.069-2.334,4.069-2.358-4.056Z" transform="translate(-97.214 -153.566)" fill="#c91426"/>
        <path id="Trazado_1648" data-name="Trazado 1648" d="M129.116,11.768H116.589l3.132-5.424L122.853.919l3.132,5.424Z" transform="translate(-97.317 -0.767)" fill="#78ae34"/>
        <path id="Trazado_1649" data-name="Trazado 1649" d="M226.157.964h8.128V3.252h-5.31v2.39h4.895V7.936h-4.895v2.4h5.31V12.62h-8.128Z" transform="translate(-188.773 -0.804)" fill="#1486c7"/>
        <path id="Trazado_1650" data-name="Trazado 1650" d="M284.94,2.328c-1.093,0-1.639.461-1.645,1.1-.023.694.649,1.047,1.708,1.275l1,.228c2.3.507,3.557,1.645,3.569,3.506-.011,2.214-1.73,3.529-4.633,3.529-2.931,0-4.826-1.3-4.861-4.03h2.7c.063,1.121.882,1.7,2.129,1.7,1.133,0,1.8-.5,1.81-1.207-.011-.654-.586-1-1.867-1.3l-1.218-.284c-2.015-.461-3.256-1.457-3.25-3.227-.017-2.169,1.9-3.62,4.565-3.62,2.709,0,4.445,1.474,4.468,3.654h-2.7c-.074-.831-.677-1.326-1.776-1.326" transform="translate(-233.782)" fill="#1486c7"/>
        <path id="Trazado_1651" data-name="Trazado 1651" d="M347.135,2.47c-1.69,0-2.755,1.275-2.755,3.5,0,2.242,1.007,3.534,2.755,3.534,1.525,0,2.379-.78,2.408-2.009h-2.311V5.441h5.026V6.984c0,3.13-2.146,4.991-5.145,4.991-3.341,0-5.606-2.282-5.606-5.97,0-3.813,2.459-6,5.572-6,2.7,0,4.77,1.645,5.054,3.967h-2.851a2.023,2.023,0,0,0-2.146-1.5" transform="translate(-285.055)" fill="#1486c7"/>
        <path id="Trazado_1652" data-name="Trazado 1652" d="M229.645,81.647l2.96,7.217h.137l2.96-7.217h3.489V93.3h-2.743v-7.16h-.1l-2.8,7.086H231.8L229,86.1h-.1v7.2h-2.743V81.647Z" transform="translate(-188.773 -68.151)" fill="#032c48"/>
        <path id="Trazado_1653" data-name="Trazado 1653" d="M308.721,93.3l3.933-11.656H316.4L320.338,93.3H317.31l-.768-2.447h-4.024l-.768,2.447Zm7.149-4.587-1.3-4.132h-.091l-1.292,4.132Z" transform="translate(-257.69 -68.151)" fill="#032c48"/>
        <path id="Trazado_1654" data-name="Trazado 1654" d="M382.717,81.646h4.815c2.618,0,4.252,1.486,4.252,3.882a3.412,3.412,0,0,1-2.02,3.335l2.419,4.439h-3.073l-2.129-3.99h-1.446V93.3h-2.817Zm4.206,5.447c1.264,0,1.941-.484,1.941-1.565s-.677-1.611-1.941-1.611h-1.389v3.176Z" transform="translate(-319.454 -68.15)" fill="#032c48"/>
        <path id="Trazado_1655" data-name="Trazado 1655" d="M443.009,81.647h2.817v4.929h.154l3.853-4.929h3.318l-4.132,5.2,4.206,6.454h-3.369l-2.9-4.582-1.127,1.423V93.3h-2.817Z" transform="translate(-369.78 -68.151)" fill="#032c48"/>
        <path id="Trazado_1656" data-name="Trazado 1656" d="M507.19,81.647h8.128v2.288h-5.31v2.39H514.9v2.294h-4.895v2.4h5.31V93.3H507.19Z" transform="translate(-423.352 -68.151)" fill="#032c48"/>
        <path id="Trazado_1657" data-name="Trazado 1657" d="M560.837,81.647h9.852v2.288h-3.535V93.3h-2.777V83.935h-3.54Z" transform="translate(-468.131 -68.151)" fill="#032c48"/>
        <path id="Trazado_1658" data-name="Trazado 1658" d="M226.157,164.68h4.815a3.9,3.9,0,0,1,4.252,4.035c0,2.419-1.668,4-4.337,4h-1.912v3.62h-2.817Zm4.206,5.817a1.78,1.78,0,1,0,0-3.546h-1.389V170.5Z" transform="translate(-188.774 -137.459)" fill="#608bb2"/>
        <path id="Trazado_1659" data-name="Trazado 1659" d="M285.484,164.68H288.3v9.368h4.849v2.288h-7.667Z" transform="translate(-238.294 -137.458)" fill="#608bb2"/>
        <path id="Trazado_1660" data-name="Trazado 1660" d="M334.622,176.336l3.933-11.656h3.751l3.933,11.656h-3.028l-.768-2.447h-4.024l-.768,2.447Zm7.149-4.587-1.3-4.132h-.091l-1.292,4.132Z" transform="translate(-279.309 -137.459)" fill="#608bb2"/>
        <path id="Trazado_1661" data-name="Trazado 1661" d="M412.414,168.1a2.1,2.1,0,0,0-2.259-1.912c-1.7,0-2.726,1.292-2.726,3.517,0,2.316,1.047,3.517,2.709,3.517a2.119,2.119,0,0,0,2.277-1.787l2.846.017a4.893,4.893,0,0,1-5.179,4.24c-3.164,0-5.527-2.151-5.527-5.987,0-3.853,2.419-5.987,5.527-5.987,2.817,0,4.895,1.593,5.179,4.382Z" transform="translate(-337.682 -136.654)" fill="#608bb2"/>
        <path id="Trazado_1662" data-name="Trazado 1662" d="M475.14,164.68h8.128v2.288h-5.31v2.39h4.895v2.294h-4.895v2.4h5.31v2.288H475.14Z" transform="translate(-396.6 -137.458)" fill="#608bb2"/>
      </g>
    </g>
  </g>
</svg>
